<svg xmlns="http://www.w3.org/2000/svg" xmlns:xlink="http://www.w3.org/1999/xlink" width="500" zoomAndPan="magnify" viewBox="0 0 375 374.999991" height="500" preserveAspectRatio="xMidYMid meet" version="1.0"><path fill="#000000" d="M 0 187.5 C 0 290.886719 84.113281 375 187.5 375 C 290.886719 375 375 290.886719 375 187.5 C 375 84.113281 290.886719 0 187.5 0 C 84.113281 0 0 84.113281 0 187.5 Z M 350 187.5 C 350 277.101562 277.101562 350 187.5 350 C 97.898438 350 25 277.101562 25 187.5 C 25 97.898438 97.898438 25 187.5 25 C 277.101562 25 350 97.898438 350 187.5 Z M 350 187.5 " fill-opacity="1" fill-rule="nonzero"/><path fill="#000000" d="M 104.085938 206.804688 C 99.207031 211.6875 99.207031 219.601562 104.085938 224.484375 C 108.964844 229.367188 116.882812 229.367188 121.761719 224.484375 L 187.5 158.746094 L 253.242188 224.484375 C 258.121094 229.367188 266.039062 229.367188 270.914062 224.484375 C 273.355469 222.042969 274.578125 218.84375 274.578125 215.644531 C 274.578125 212.445312 273.355469 209.246094 270.914062 206.804688 L 196.335938 132.226562 C 191.457031 127.347656 183.542969 127.347656 178.660156 132.226562 Z M 104.085938 206.804688 " fill-opacity="1" fill-rule="nonzero"/></svg>