<svg xmlns="http://www.w3.org/2000/svg" xmlns:xlink="http://www.w3.org/1999/xlink" width="500" zoomAndPan="magnify" viewBox="0 0 375 374.999991" height="500" preserveAspectRatio="xMidYMid meet" version="1.0"><defs><g/></defs><g fill="#ffffff" fill-opacity="1"><g transform="translate(157.238788, 281.182034)"><g><path d="M 8.921875 -201.578125 L 63.59375 -201.578125 C 78.300781 -201.578125 88.976562 -197.976562 95.625 -190.78125 C 102.28125 -183.59375 105.609375 -171.863281 105.609375 -155.59375 L 105.609375 -146.671875 C 105.609375 -127.429688 98.722656 -115.929688 84.953125 -112.171875 C 93.398438 -109.984375 99.34375 -104.898438 102.78125 -96.921875 C 106.226562 -88.941406 107.953125 -78.378906 107.953125 -65.234375 C 107.953125 -43.804688 104.742188 -27.578125 98.328125 -16.546875 C 91.910156 -5.515625 80.332031 0 63.59375 0 L 8.921875 0 Z M 56.5625 -125.78125 C 60 -125.78125 62.34375 -127.070312 63.59375 -129.65625 C 64.84375 -132.238281 65.46875 -135.875 65.46875 -140.5625 L 65.46875 -160.75 C 65.46875 -167.320312 62.578125 -170.609375 56.796875 -170.609375 L 48.34375 -170.609375 L 48.34375 -125.78125 Z M 52.328125 -35.4375 C 62.816406 -35.4375 68.0625 -40.441406 68.0625 -50.453125 L 68.0625 -75.5625 C 68.0625 -81.664062 67.160156 -86.28125 65.359375 -89.40625 C 63.554688 -92.539062 60.390625 -94.109375 55.859375 -94.109375 L 48.34375 -94.109375 L 48.34375 -35.671875 Z M 52.328125 -35.4375 "/></g></g></g><g fill="#0052bf" fill-opacity="1"><g transform="translate(154.733809, 281.384982)"><g><path d="M -42.921875 -24.921875 L 0 -42.25 L 0 -31.734375 L -8.578125 -28.5625 L -8.578125 -12.234375 L 0 -9.046875 L 0 1.453125 L -42.921875 -15.875 Z M -17.171875 -25.234375 L -29.65625 -20.453125 L -29.65625 -20.34375 L -17.171875 -15.5625 Z M -17.171875 -25.234375 "/></g></g></g><g fill="#0052bf" fill-opacity="1"><g transform="translate(154.733809, 244.160521)"><g><path d="M -42.921875 -12.90625 L -8.578125 -12.90625 L -8.578125 -27.6875 L 0 -27.6875 L 0 -3.125 L -42.921875 -3.125 Z M -42.921875 -12.90625 "/></g></g></g><g fill="#0052bf" fill-opacity="1"><g transform="translate(154.733809, 218.322435)"><g><path d="M 0 -42.203125 L 0 -28.71875 L -18.21875 -12.90625 L 0 -12.90625 L 0 -3.125 L -42.921875 -3.125 L -42.921875 -12.90625 L -25.390625 -12.90625 L -42.921875 -27.625 L -42.921875 -39.484375 L -22.578125 -22.21875 Z M 0 -42.203125 "/></g></g></g><g fill="#0052bf" fill-opacity="1"><g transform="translate(154.733809, 180.941973)"><g><path d="M 0 -38.609375 L -25.4375 -36.578125 L -25.4375 -36.3125 L -0.265625 -27.53125 L -0.265625 -21.703125 L -25.4375 -12.90625 L -25.4375 -12.640625 L 0 -10.609375 L 0 -0.828125 L -42.921875 -4.6875 L -42.921875 -15.09375 L -18.15625 -24.609375 L -42.921875 -34.125 L -42.921875 -44.53125 L 0 -48.390625 Z M 0 -38.609375 "/></g></g></g><g fill="#0052bf" fill-opacity="1"><g transform="translate(154.733809, 135.294705)"><g><path d="M -42.921875 -12.90625 L 0 -12.90625 L 0 -3.125 L -42.921875 -3.125 Z M -42.921875 -12.90625 "/></g></g></g><g fill="#0052bf" fill-opacity="1"><g transform="translate(154.733809, 122.818753)"><g><path d="M -26.640625 -12.90625 L 0 -12.90625 L 0 -3.125 L -42.921875 -3.125 L -42.921875 -12.90625 L -16.28125 -29.96875 L -16.28125 -30.078125 L -42.921875 -30.078125 L -42.921875 -39.859375 L 0 -39.859375 L 0 -30.078125 L -26.640625 -13.015625 Z M -26.640625 -12.90625 "/></g></g></g><g fill="#ffffff" fill-opacity="1"><g transform="translate(115.966365, 307.251051)"><g><path d="M 10.078125 -13.140625 C 10.335938 -13.140625 10.550781 -13.0625 10.71875 -12.90625 C 10.894531 -12.75 10.984375 -12.535156 10.984375 -12.265625 C 10.984375 -12.003906 10.894531 -11.796875 10.71875 -11.640625 C 10.550781 -11.492188 10.335938 -11.421875 10.078125 -11.421875 L 6.734375 -11.421875 L 6.734375 -0.90625 C 6.734375 -0.65625 6.640625 -0.441406 6.453125 -0.265625 C 6.273438 -0.0859375 6.050781 0 5.78125 0 C 5.5 0 5.269531 -0.0859375 5.09375 -0.265625 C 4.914062 -0.441406 4.828125 -0.65625 4.828125 -0.90625 L 4.828125 -11.421875 L 1.5 -11.421875 C 1.238281 -11.421875 1.019531 -11.5 0.84375 -11.65625 C 0.675781 -11.8125 0.59375 -12.023438 0.59375 -12.296875 C 0.59375 -12.546875 0.675781 -12.75 0.84375 -12.90625 C 1.019531 -13.0625 1.238281 -13.140625 1.5 -13.140625 Z M 10.078125 -13.140625 "/></g></g></g><g fill="#ffffff" fill-opacity="1"><g transform="translate(130.8704, 307.251051)"><g><path d="M 8.984375 -1.71875 C 9.253906 -1.71875 9.472656 -1.628906 9.640625 -1.453125 C 9.804688 -1.285156 9.890625 -1.082031 9.890625 -0.84375 C 9.890625 -0.59375 9.804688 -0.390625 9.640625 -0.234375 C 9.472656 -0.078125 9.253906 0 8.984375 0 L 2.453125 0 C 2.203125 0 1.988281 -0.0859375 1.8125 -0.265625 C 1.644531 -0.441406 1.5625 -0.65625 1.5625 -0.90625 L 1.5625 -12.234375 C 1.5625 -12.484375 1.644531 -12.695312 1.8125 -12.875 C 1.988281 -13.050781 2.203125 -13.140625 2.453125 -13.140625 L 8.984375 -13.140625 C 9.253906 -13.140625 9.472656 -13.054688 9.640625 -12.890625 C 9.804688 -12.722656 9.890625 -12.507812 9.890625 -12.25 C 9.890625 -12 9.804688 -11.796875 9.640625 -11.640625 C 9.472656 -11.484375 9.253906 -11.40625 8.984375 -11.40625 L 3.421875 -11.40625 L 3.421875 -7.578125 L 8.140625 -7.578125 C 8.398438 -7.578125 8.613281 -7.492188 8.78125 -7.328125 C 8.957031 -7.171875 9.046875 -6.96875 9.046875 -6.71875 C 9.046875 -6.457031 8.957031 -6.25 8.78125 -6.09375 C 8.613281 -5.945312 8.398438 -5.875 8.140625 -5.875 L 3.421875 -5.875 L 3.421875 -1.71875 Z M 8.984375 -1.71875 "/></g></g></g><g fill="#ffffff" fill-opacity="1"><g transform="translate(144.892194, 307.251051)"><g><path d="M 10.921875 -12.359375 C 11.222656 -12.203125 11.375 -11.953125 11.375 -11.609375 C 11.375 -11.390625 11.296875 -11.1875 11.140625 -11 C 10.992188 -10.800781 10.789062 -10.703125 10.53125 -10.703125 C 10.351562 -10.703125 10.179688 -10.742188 10.015625 -10.828125 C 9.242188 -11.265625 8.40625 -11.484375 7.5 -11.484375 C 6.5625 -11.484375 5.734375 -11.273438 5.015625 -10.859375 C 4.296875 -10.453125 3.734375 -9.875 3.328125 -9.125 C 2.929688 -8.382812 2.734375 -7.53125 2.734375 -6.5625 C 2.734375 -5.53125 2.941406 -4.640625 3.359375 -3.890625 C 3.773438 -3.140625 4.34375 -2.566406 5.0625 -2.171875 C 5.789062 -1.773438 6.601562 -1.578125 7.5 -1.578125 C 8.425781 -1.578125 9.265625 -1.800781 10.015625 -2.25 C 10.171875 -2.320312 10.335938 -2.359375 10.515625 -2.359375 C 10.785156 -2.359375 11.003906 -2.253906 11.171875 -2.046875 C 11.316406 -1.859375 11.390625 -1.65625 11.390625 -1.4375 C 11.390625 -1.289062 11.347656 -1.148438 11.265625 -1.015625 C 11.179688 -0.890625 11.070312 -0.789062 10.9375 -0.71875 C 10.445312 -0.4375 9.898438 -0.210938 9.296875 -0.046875 C 8.691406 0.109375 8.09375 0.1875 7.5 0.1875 C 6.289062 0.1875 5.175781 -0.078125 4.15625 -0.609375 C 3.132812 -1.148438 2.320312 -1.929688 1.71875 -2.953125 C 1.113281 -3.984375 0.8125 -5.1875 0.8125 -6.5625 C 0.8125 -7.832031 1.097656 -8.972656 1.671875 -9.984375 C 2.253906 -11.003906 3.054688 -11.804688 4.078125 -12.390625 C 5.097656 -12.972656 6.238281 -13.265625 7.5 -13.265625 C 8.71875 -13.265625 9.859375 -12.960938 10.921875 -12.359375 Z M 10.921875 -12.359375 "/></g></g></g><g fill="#ffffff" fill-opacity="1"><g transform="translate(160.190412, 307.251051)"><g><path d="M 11.015625 -13.140625 C 11.285156 -13.140625 11.507812 -13.050781 11.6875 -12.875 C 11.863281 -12.707031 11.953125 -12.492188 11.953125 -12.234375 L 11.953125 -0.921875 C 11.941406 -0.660156 11.847656 -0.441406 11.671875 -0.265625 C 11.492188 -0.0859375 11.269531 0 11 0 C 10.75 0 10.53125 -0.0859375 10.34375 -0.265625 C 10.164062 -0.441406 10.078125 -0.660156 10.078125 -0.921875 L 10.078125 -5.78125 L 3.421875 -5.78125 L 3.421875 -0.921875 C 3.421875 -0.660156 3.328125 -0.441406 3.140625 -0.265625 C 2.953125 -0.0859375 2.734375 0 2.484375 0 C 2.203125 0 1.976562 -0.0859375 1.8125 -0.265625 C 1.644531 -0.441406 1.5625 -0.660156 1.5625 -0.921875 L 1.5625 -12.234375 C 1.5625 -12.484375 1.644531 -12.695312 1.8125 -12.875 C 1.988281 -13.050781 2.21875 -13.140625 2.5 -13.140625 C 2.75 -13.140625 2.960938 -13.050781 3.140625 -12.875 C 3.328125 -12.695312 3.421875 -12.484375 3.421875 -12.234375 L 3.421875 -7.5 L 10.078125 -7.5 L 10.078125 -12.234375 C 10.078125 -12.484375 10.171875 -12.695312 10.359375 -12.875 C 10.546875 -13.050781 10.765625 -13.140625 11.015625 -13.140625 Z M 11.015625 -13.140625 "/></g></g></g><g fill="#ffffff" fill-opacity="1"><g transform="translate(177.009083, 307.251051)"><g/></g></g><g fill="#ffffff" fill-opacity="1"><g transform="translate(185.531023, 307.251051)"><g><path d="M 5.53125 0.1875 C 4.625 0.1875 3.816406 0.0625 3.109375 -0.1875 C 2.410156 -0.445312 1.742188 -0.863281 1.109375 -1.4375 C 0.847656 -1.664062 0.71875 -1.925781 0.71875 -2.21875 C 0.71875 -2.4375 0.800781 -2.632812 0.96875 -2.8125 C 1.144531 -3 1.351562 -3.09375 1.59375 -3.09375 C 1.8125 -3.09375 1.992188 -3.023438 2.140625 -2.890625 C 2.640625 -2.429688 3.15625 -2.085938 3.6875 -1.859375 C 4.21875 -1.640625 4.820312 -1.53125 5.5 -1.53125 C 6.289062 -1.53125 6.957031 -1.710938 7.5 -2.078125 C 8.039062 -2.441406 8.3125 -2.898438 8.3125 -3.453125 C 8.300781 -4.097656 8.03125 -4.597656 7.5 -4.953125 C 6.96875 -5.316406 6.15625 -5.617188 5.0625 -5.859375 C 3.78125 -6.117188 2.789062 -6.546875 2.09375 -7.140625 C 1.394531 -7.742188 1.046875 -8.578125 1.046875 -9.640625 C 1.046875 -10.378906 1.238281 -11.023438 1.625 -11.578125 C 2.019531 -12.140625 2.5625 -12.570312 3.25 -12.875 C 3.9375 -13.175781 4.710938 -13.328125 5.578125 -13.328125 C 6.347656 -13.328125 7.078125 -13.203125 7.765625 -12.953125 C 8.453125 -12.703125 9.007812 -12.367188 9.4375 -11.953125 C 9.726562 -11.703125 9.875 -11.429688 9.875 -11.140625 C 9.875 -10.921875 9.785156 -10.722656 9.609375 -10.546875 C 9.441406 -10.367188 9.238281 -10.28125 9 -10.28125 C 8.832031 -10.28125 8.691406 -10.332031 8.578125 -10.4375 C 8.253906 -10.757812 7.800781 -11.03125 7.21875 -11.25 C 6.644531 -11.476562 6.097656 -11.59375 5.578125 -11.59375 C 4.734375 -11.59375 4.0625 -11.421875 3.5625 -11.078125 C 3.070312 -10.734375 2.828125 -10.28125 2.828125 -9.71875 C 2.828125 -9.101562 3.070312 -8.632812 3.5625 -8.3125 C 4.0625 -7.988281 4.800781 -7.710938 5.78125 -7.484375 C 6.757812 -7.273438 7.554688 -7.023438 8.171875 -6.734375 C 8.785156 -6.453125 9.257812 -6.050781 9.59375 -5.53125 C 9.9375 -5.019531 10.109375 -4.351562 10.109375 -3.53125 C 10.109375 -2.800781 9.90625 -2.15625 9.5 -1.59375 C 9.09375 -1.03125 8.539062 -0.59375 7.84375 -0.28125 C 7.144531 0.03125 6.375 0.1875 5.53125 0.1875 Z M 5.53125 0.1875 "/></g></g></g><g fill="#ffffff" fill-opacity="1"><g transform="translate(199.778085, 307.251051)"><g><path d="M 10.078125 -13.140625 C 10.335938 -13.140625 10.550781 -13.0625 10.71875 -12.90625 C 10.894531 -12.75 10.984375 -12.535156 10.984375 -12.265625 C 10.984375 -12.003906 10.894531 -11.796875 10.71875 -11.640625 C 10.550781 -11.492188 10.335938 -11.421875 10.078125 -11.421875 L 6.734375 -11.421875 L 6.734375 -0.90625 C 6.734375 -0.65625 6.640625 -0.441406 6.453125 -0.265625 C 6.273438 -0.0859375 6.050781 0 5.78125 0 C 5.5 0 5.269531 -0.0859375 5.09375 -0.265625 C 4.914062 -0.441406 4.828125 -0.65625 4.828125 -0.90625 L 4.828125 -11.421875 L 1.5 -11.421875 C 1.238281 -11.421875 1.019531 -11.5 0.84375 -11.65625 C 0.675781 -11.8125 0.59375 -12.023438 0.59375 -12.296875 C 0.59375 -12.546875 0.675781 -12.75 0.84375 -12.90625 C 1.019531 -13.0625 1.238281 -13.140625 1.5 -13.140625 Z M 10.078125 -13.140625 "/></g></g></g><g fill="#ffffff" fill-opacity="1"><g transform="translate(214.68212, 307.251051)"><g><path d="M 10.859375 -13.15625 C 11.128906 -13.15625 11.34375 -13.066406 11.5 -12.890625 C 11.65625 -12.722656 11.734375 -12.507812 11.734375 -12.25 L 11.734375 -5.046875 C 11.734375 -4.054688 11.515625 -3.164062 11.078125 -2.375 C 10.640625 -1.59375 10.035156 -0.976562 9.265625 -0.53125 C 8.492188 -0.09375 7.625 0.125 6.65625 0.125 C 5.6875 0.125 4.8125 -0.09375 4.03125 -0.53125 C 3.257812 -0.976562 2.65625 -1.59375 2.21875 -2.375 C 1.78125 -3.164062 1.5625 -4.054688 1.5625 -5.046875 L 1.5625 -12.25 C 1.5625 -12.507812 1.644531 -12.722656 1.8125 -12.890625 C 1.988281 -13.066406 2.21875 -13.15625 2.5 -13.15625 C 2.738281 -13.15625 2.945312 -13.066406 3.125 -12.890625 C 3.300781 -12.710938 3.390625 -12.5 3.390625 -12.25 L 3.390625 -5.046875 C 3.390625 -4.398438 3.539062 -3.816406 3.84375 -3.296875 C 4.144531 -2.773438 4.546875 -2.367188 5.046875 -2.078125 C 5.546875 -1.796875 6.082031 -1.65625 6.65625 -1.65625 C 7.257812 -1.65625 7.816406 -1.796875 8.328125 -2.078125 C 8.835938 -2.367188 9.242188 -2.773438 9.546875 -3.296875 C 9.859375 -3.816406 10.015625 -4.398438 10.015625 -5.046875 L 10.015625 -12.25 C 10.015625 -12.507812 10.085938 -12.722656 10.234375 -12.890625 C 10.390625 -13.066406 10.597656 -13.15625 10.859375 -13.15625 Z M 10.859375 -13.15625 "/></g></g></g><g fill="#ffffff" fill-opacity="1"><g transform="translate(231.294307, 307.251051)"><g><path d="M 7.078125 -13.140625 C 8.253906 -13.140625 9.257812 -12.84375 10.09375 -12.25 C 10.9375 -11.664062 11.566406 -10.875 11.984375 -9.875 C 12.410156 -8.882812 12.625 -7.78125 12.625 -6.5625 C 12.625 -5.34375 12.410156 -4.234375 11.984375 -3.234375 C 11.566406 -2.242188 10.9375 -1.457031 10.09375 -0.875 C 9.257812 -0.289062 8.253906 0 7.078125 0 L 2.453125 0 C 2.203125 0 1.988281 -0.0859375 1.8125 -0.265625 C 1.644531 -0.441406 1.5625 -0.65625 1.5625 -0.90625 L 1.5625 -12.234375 C 1.5625 -12.484375 1.644531 -12.695312 1.8125 -12.875 C 1.988281 -13.050781 2.203125 -13.140625 2.453125 -13.140625 Z M 6.890625 -1.71875 C 8.160156 -1.71875 9.113281 -2.171875 9.75 -3.078125 C 10.394531 -3.992188 10.71875 -5.15625 10.71875 -6.5625 C 10.71875 -7.96875 10.394531 -9.125 9.75 -10.03125 C 9.101562 -10.945312 8.148438 -11.40625 6.890625 -11.40625 L 3.421875 -11.40625 L 3.421875 -1.71875 Z M 6.890625 -1.71875 "/></g></g></g><g fill="#ffffff" fill-opacity="1"><g transform="translate(248.075433, 307.251051)"><g><path d="M 10.578125 -12.296875 C 10.578125 -12.109375 10.523438 -11.921875 10.421875 -11.734375 L 6.375 -6.046875 L 6.375 -0.90625 C 6.375 -0.65625 6.289062 -0.441406 6.125 -0.265625 C 5.957031 -0.0859375 5.753906 0 5.515625 0 C 5.265625 0 5.050781 -0.0859375 4.875 -0.265625 C 4.695312 -0.441406 4.609375 -0.65625 4.609375 -0.90625 L 4.609375 -6.1875 L 0.59375 -11.609375 C 0.425781 -11.835938 0.34375 -12.066406 0.34375 -12.296875 C 0.34375 -12.546875 0.441406 -12.753906 0.640625 -12.921875 C 0.835938 -13.097656 1.054688 -13.1875 1.296875 -13.1875 C 1.578125 -13.1875 1.820312 -13.050781 2.03125 -12.78125 L 5.546875 -7.90625 L 8.953125 -12.765625 C 9.148438 -13.046875 9.398438 -13.1875 9.703125 -13.1875 C 9.941406 -13.1875 10.144531 -13.097656 10.3125 -12.921875 C 10.488281 -12.753906 10.578125 -12.546875 10.578125 -12.296875 Z M 10.578125 -12.296875 "/></g></g></g></svg>