<svg xmlns="http://www.w3.org/2000/svg" xmlns:xlink="http://www.w3.org/1999/xlink" width="500" zoomAndPan="magnify" viewBox="0 0 375 374.999991" height="500" preserveAspectRatio="xMidYMid meet" version="1.0"><defs><g/></defs><g fill="#000000" fill-opacity="1"><g transform="translate(147.01389, 312.836119)"><g><path d="M 11.9375 -269.6875 L 85.078125 -269.6875 C 104.753906 -269.6875 119.039062 -264.867188 127.9375 -255.234375 C 136.832031 -245.609375 141.28125 -229.914062 141.28125 -208.15625 L 141.28125 -196.21875 C 141.28125 -170.476562 132.070312 -155.09375 113.65625 -150.0625 C 124.957031 -147.132812 132.910156 -140.332031 137.515625 -129.65625 C 142.117188 -118.988281 144.421875 -104.863281 144.421875 -87.28125 C 144.421875 -58.601562 140.128906 -36.882812 131.546875 -22.125 C 122.960938 -7.375 107.472656 0 85.078125 0 L 11.9375 0 Z M 75.65625 -168.28125 C 80.257812 -168.28125 83.398438 -170.003906 85.078125 -173.453125 C 86.753906 -176.910156 87.59375 -181.78125 87.59375 -188.0625 L 87.59375 -215.0625 C 87.59375 -223.851562 83.722656 -228.25 75.984375 -228.25 L 64.671875 -228.25 L 64.671875 -168.28125 Z M 70.015625 -47.40625 C 84.035156 -47.40625 91.046875 -54.101562 91.046875 -67.5 L 91.046875 -101.09375 C 91.046875 -109.257812 89.84375 -115.429688 87.4375 -119.609375 C 85.03125 -123.796875 80.789062 -125.890625 74.71875 -125.890625 L 64.671875 -125.890625 L 64.671875 -47.71875 Z M 70.015625 -47.40625 "/></g></g></g><g fill="#0052bf" fill-opacity="1"><g transform="translate(143.662496, 313.107635)"><g><path d="M -57.421875 -33.34375 L 0 -56.515625 L 0 -42.46875 L -11.484375 -38.21875 L -11.484375 -16.359375 L 0 -12.109375 L 0 1.953125 L -57.421875 -21.234375 Z M -22.96875 -33.765625 L -39.671875 -27.359375 L -39.671875 -27.21875 L -22.96875 -20.8125 Z M -22.96875 -33.765625 "/></g></g></g><g fill="#0052bf" fill-opacity="1"><g transform="translate(143.662496, 263.305461)"><g><path d="M -57.421875 -17.265625 L -11.484375 -17.265625 L -11.484375 -37.03125 L 0 -37.03125 L 0 -4.171875 L -57.421875 -4.171875 Z M -57.421875 -17.265625 "/></g></g></g><g fill="#0052bf" fill-opacity="1"><g transform="translate(143.662496, 228.736986)"><g><path d="M 0 -56.453125 L 0 -38.421875 L -24.359375 -17.265625 L 0 -17.265625 L 0 -4.171875 L -57.421875 -4.171875 L -57.421875 -17.265625 L -33.96875 -17.265625 L -57.421875 -36.96875 L -57.421875 -52.828125 L -30.203125 -29.71875 Z M 0 -56.453125 "/></g></g></g><g fill="#0052bf" fill-opacity="1"><g transform="translate(143.662496, 178.726102)"><g><path d="M 0 -51.65625 L -34.03125 -48.9375 L -34.03125 -48.59375 L -0.34375 -36.828125 L -0.34375 -29.03125 L -34.03125 -17.265625 L -34.03125 -16.921875 L 0 -14.203125 L 0 -1.109375 L -57.421875 -6.265625 L -57.421875 -20.1875 L -24.296875 -32.921875 L -57.421875 -45.65625 L -57.421875 -59.578125 L 0 -64.734375 Z M 0 -51.65625 "/></g></g></g><g fill="#0052bf" fill-opacity="1"><g transform="translate(143.662496, 117.655151)"><g><path d="M -57.421875 -17.265625 L 0 -17.265625 L 0 -4.171875 L -57.421875 -4.171875 Z M -57.421875 -17.265625 "/></g></g></g><g fill="#0052bf" fill-opacity="1"><g transform="translate(143.662496, 100.963721)"><g><path d="M -35.640625 -17.265625 L 0 -17.265625 L 0 -4.171875 L -57.421875 -4.171875 L -57.421875 -17.265625 L -21.78125 -40.09375 L -21.78125 -40.234375 L -57.421875 -40.234375 L -57.421875 -53.328125 L 0 -53.328125 L 0 -40.234375 L -35.640625 -17.40625 Z M -35.640625 -17.265625 "/></g></g></g><g fill="#000000" fill-opacity="1"><g transform="translate(91.795985, 347.713593)"><g><path d="M 13.484375 -17.578125 C 13.835938 -17.578125 14.125 -17.472656 14.34375 -17.265625 C 14.570312 -17.054688 14.6875 -16.773438 14.6875 -16.421875 C 14.6875 -16.066406 14.570312 -15.789062 14.34375 -15.59375 C 14.125 -15.394531 13.835938 -15.296875 13.484375 -15.296875 L 9.015625 -15.296875 L 9.015625 -1.203125 C 9.015625 -0.867188 8.890625 -0.582031 8.640625 -0.34375 C 8.398438 -0.113281 8.097656 0 7.734375 0 C 7.367188 0 7.0625 -0.113281 6.8125 -0.34375 C 6.570312 -0.582031 6.453125 -0.867188 6.453125 -1.203125 L 6.453125 -15.296875 L 2.015625 -15.296875 C 1.660156 -15.296875 1.367188 -15.398438 1.140625 -15.609375 C 0.910156 -15.816406 0.796875 -16.097656 0.796875 -16.453125 C 0.796875 -16.785156 0.910156 -17.054688 1.140625 -17.265625 C 1.367188 -17.472656 1.660156 -17.578125 2.015625 -17.578125 Z M 13.484375 -17.578125 "/></g></g></g><g fill="#000000" fill-opacity="1"><g transform="translate(111.735919, 347.713593)"><g><path d="M 12.03125 -2.3125 C 12.375 -2.3125 12.660156 -2.191406 12.890625 -1.953125 C 13.117188 -1.722656 13.234375 -1.445312 13.234375 -1.125 C 13.234375 -0.789062 13.117188 -0.519531 12.890625 -0.3125 C 12.660156 -0.101562 12.375 0 12.03125 0 L 3.296875 0 C 2.953125 0 2.660156 -0.113281 2.421875 -0.34375 C 2.191406 -0.582031 2.078125 -0.867188 2.078125 -1.203125 L 2.078125 -16.375 C 2.078125 -16.707031 2.191406 -16.988281 2.421875 -17.21875 C 2.660156 -17.457031 2.953125 -17.578125 3.296875 -17.578125 L 12.03125 -17.578125 C 12.375 -17.578125 12.660156 -17.46875 12.890625 -17.25 C 13.117188 -17.03125 13.234375 -16.742188 13.234375 -16.390625 C 13.234375 -16.054688 13.117188 -15.785156 12.890625 -15.578125 C 12.660156 -15.367188 12.375 -15.265625 12.03125 -15.265625 L 4.5625 -15.265625 L 4.5625 -10.140625 L 10.890625 -10.140625 C 11.242188 -10.140625 11.535156 -10.03125 11.765625 -9.8125 C 11.992188 -9.59375 12.109375 -9.316406 12.109375 -8.984375 C 12.109375 -8.640625 11.992188 -8.363281 11.765625 -8.15625 C 11.535156 -7.957031 11.242188 -7.859375 10.890625 -7.859375 L 4.5625 -7.859375 L 4.5625 -2.3125 Z M 12.03125 -2.3125 "/></g></g></g><g fill="#000000" fill-opacity="1"><g transform="translate(130.495514, 347.713593)"><g><path d="M 14.609375 -16.546875 C 15.015625 -16.328125 15.21875 -15.992188 15.21875 -15.546875 C 15.21875 -15.242188 15.117188 -14.96875 14.921875 -14.71875 C 14.710938 -14.445312 14.4375 -14.3125 14.09375 -14.3125 C 13.851562 -14.3125 13.625 -14.367188 13.40625 -14.484375 C 12.375 -15.066406 11.253906 -15.359375 10.046875 -15.359375 C 8.785156 -15.359375 7.671875 -15.082031 6.703125 -14.53125 C 5.742188 -13.976562 5 -13.203125 4.46875 -12.203125 C 3.9375 -11.210938 3.671875 -10.070312 3.671875 -8.78125 C 3.671875 -7.394531 3.945312 -6.195312 4.5 -5.1875 C 5.050781 -4.1875 5.8125 -3.421875 6.78125 -2.890625 C 7.75 -2.367188 8.835938 -2.109375 10.046875 -2.109375 C 11.285156 -2.109375 12.40625 -2.410156 13.40625 -3.015625 C 13.601562 -3.109375 13.820312 -3.15625 14.0625 -3.15625 C 14.425781 -3.15625 14.71875 -3.015625 14.9375 -2.734375 C 15.132812 -2.484375 15.234375 -2.21875 15.234375 -1.9375 C 15.234375 -1.726562 15.179688 -1.535156 15.078125 -1.359375 C 14.972656 -1.191406 14.828125 -1.054688 14.640625 -0.953125 C 13.984375 -0.585938 13.25 -0.296875 12.4375 -0.078125 C 11.625 0.140625 10.828125 0.25 10.046875 0.25 C 8.421875 0.25 6.925781 -0.109375 5.5625 -0.828125 C 4.195312 -1.546875 3.109375 -2.59375 2.296875 -3.96875 C 1.484375 -5.34375 1.078125 -6.945312 1.078125 -8.78125 C 1.078125 -10.476562 1.46875 -12.007812 2.25 -13.375 C 3.03125 -14.738281 4.097656 -15.804688 5.453125 -16.578125 C 6.816406 -17.359375 8.347656 -17.75 10.046875 -17.75 C 11.671875 -17.75 13.191406 -17.347656 14.609375 -16.546875 Z M 14.609375 -16.546875 "/></g></g></g><g fill="#000000" fill-opacity="1"><g transform="translate(150.962821, 347.713593)"><g><path d="M 14.734375 -17.578125 C 15.109375 -17.578125 15.410156 -17.460938 15.640625 -17.234375 C 15.878906 -17.015625 16 -16.726562 16 -16.375 L 16 -1.234375 C 15.976562 -0.878906 15.847656 -0.582031 15.609375 -0.34375 C 15.378906 -0.113281 15.082031 0 14.71875 0 C 14.382812 0 14.09375 -0.113281 13.84375 -0.34375 C 13.601562 -0.582031 13.484375 -0.878906 13.484375 -1.234375 L 13.484375 -7.734375 L 4.5625 -7.734375 L 4.5625 -1.234375 C 4.5625 -0.878906 4.4375 -0.582031 4.1875 -0.34375 C 3.9375 -0.113281 3.644531 0 3.3125 0 C 2.945312 0 2.648438 -0.113281 2.421875 -0.34375 C 2.191406 -0.582031 2.078125 -0.878906 2.078125 -1.234375 L 2.078125 -16.375 C 2.078125 -16.707031 2.191406 -16.988281 2.421875 -17.21875 C 2.660156 -17.457031 2.96875 -17.578125 3.34375 -17.578125 C 3.675781 -17.578125 3.960938 -17.457031 4.203125 -17.21875 C 4.441406 -16.988281 4.5625 -16.707031 4.5625 -16.375 L 4.5625 -10.046875 L 13.484375 -10.046875 L 13.484375 -16.375 C 13.484375 -16.707031 13.609375 -16.988281 13.859375 -17.21875 C 14.109375 -17.457031 14.398438 -17.578125 14.734375 -17.578125 Z M 14.734375 -17.578125 "/></g></g></g><g fill="#000000" fill-opacity="1"><g transform="translate(173.464324, 347.713593)"><g/></g></g><g fill="#000000" fill-opacity="1"><g transform="translate(184.865727, 347.713593)"><g><path d="M 7.40625 0.25 C 6.1875 0.25 5.109375 0.078125 4.171875 -0.265625 C 3.234375 -0.609375 2.335938 -1.164062 1.484375 -1.9375 C 1.128906 -2.238281 0.953125 -2.582031 0.953125 -2.96875 C 0.953125 -3.269531 1.066406 -3.539062 1.296875 -3.78125 C 1.535156 -4.019531 1.816406 -4.140625 2.140625 -4.140625 C 2.421875 -4.140625 2.660156 -4.046875 2.859375 -3.859375 C 3.523438 -3.242188 4.210938 -2.789062 4.921875 -2.5 C 5.640625 -2.207031 6.453125 -2.0625 7.359375 -2.0625 C 8.410156 -2.0625 9.300781 -2.300781 10.03125 -2.78125 C 10.757812 -3.269531 11.125 -3.882812 11.125 -4.625 C 11.101562 -5.488281 10.738281 -6.160156 10.03125 -6.640625 C 9.320312 -7.117188 8.238281 -7.515625 6.78125 -7.828125 C 5.050781 -8.179688 3.722656 -8.757812 2.796875 -9.5625 C 1.867188 -10.363281 1.40625 -11.476562 1.40625 -12.90625 C 1.40625 -13.894531 1.664062 -14.757812 2.1875 -15.5 C 2.707031 -16.25 3.425781 -16.820312 4.34375 -17.21875 C 5.257812 -17.625 6.296875 -17.828125 7.453125 -17.828125 C 8.492188 -17.828125 9.472656 -17.660156 10.390625 -17.328125 C 11.316406 -16.992188 12.0625 -16.550781 12.625 -16 C 13.007812 -15.664062 13.203125 -15.304688 13.203125 -14.921875 C 13.203125 -14.617188 13.085938 -14.347656 12.859375 -14.109375 C 12.640625 -13.878906 12.367188 -13.765625 12.046875 -13.765625 C 11.816406 -13.765625 11.625 -13.828125 11.46875 -13.953125 C 11.039062 -14.390625 10.441406 -14.757812 9.671875 -15.0625 C 8.898438 -15.363281 8.160156 -15.515625 7.453125 -15.515625 C 6.335938 -15.515625 5.445312 -15.285156 4.78125 -14.828125 C 4.125 -14.367188 3.796875 -13.757812 3.796875 -13 C 3.796875 -12.1875 4.125 -11.5625 4.78125 -11.125 C 5.445312 -10.6875 6.429688 -10.316406 7.734375 -10.015625 C 9.035156 -9.734375 10.097656 -9.398438 10.921875 -9.015625 C 11.753906 -8.628906 12.394531 -8.09375 12.84375 -7.40625 C 13.300781 -6.71875 13.53125 -5.820312 13.53125 -4.71875 C 13.53125 -3.75 13.257812 -2.882812 12.71875 -2.125 C 12.175781 -1.375 11.4375 -0.789062 10.5 -0.375 C 9.5625 0.0390625 8.53125 0.25 7.40625 0.25 Z M 7.40625 0.25 "/></g></g></g><g fill="#000000" fill-opacity="1"><g transform="translate(203.926706, 347.713593)"><g><path d="M 13.484375 -17.578125 C 13.835938 -17.578125 14.125 -17.472656 14.34375 -17.265625 C 14.570312 -17.054688 14.6875 -16.773438 14.6875 -16.421875 C 14.6875 -16.066406 14.570312 -15.789062 14.34375 -15.59375 C 14.125 -15.394531 13.835938 -15.296875 13.484375 -15.296875 L 9.015625 -15.296875 L 9.015625 -1.203125 C 9.015625 -0.867188 8.890625 -0.582031 8.640625 -0.34375 C 8.398438 -0.113281 8.097656 0 7.734375 0 C 7.367188 0 7.0625 -0.113281 6.8125 -0.34375 C 6.570312 -0.582031 6.453125 -0.867188 6.453125 -1.203125 L 6.453125 -15.296875 L 2.015625 -15.296875 C 1.660156 -15.296875 1.367188 -15.398438 1.140625 -15.609375 C 0.910156 -15.816406 0.796875 -16.097656 0.796875 -16.453125 C 0.796875 -16.785156 0.910156 -17.054688 1.140625 -17.265625 C 1.367188 -17.472656 1.660156 -17.578125 2.015625 -17.578125 Z M 13.484375 -17.578125 "/></g></g></g><g fill="#000000" fill-opacity="1"><g transform="translate(223.86664, 347.713593)"><g><path d="M 14.53125 -17.609375 C 14.882812 -17.609375 15.164062 -17.492188 15.375 -17.265625 C 15.582031 -17.035156 15.6875 -16.742188 15.6875 -16.390625 L 15.6875 -6.75 C 15.6875 -5.425781 15.394531 -4.238281 14.8125 -3.1875 C 14.226562 -2.132812 13.421875 -1.3125 12.390625 -0.71875 C 11.359375 -0.125 10.195312 0.171875 8.90625 0.171875 C 7.601562 0.171875 6.429688 -0.125 5.390625 -0.71875 C 4.359375 -1.3125 3.546875 -2.132812 2.953125 -3.1875 C 2.367188 -4.238281 2.078125 -5.425781 2.078125 -6.75 L 2.078125 -16.390625 C 2.078125 -16.742188 2.191406 -17.035156 2.421875 -17.265625 C 2.660156 -17.492188 2.96875 -17.609375 3.34375 -17.609375 C 3.65625 -17.609375 3.929688 -17.488281 4.171875 -17.25 C 4.421875 -17.019531 4.546875 -16.734375 4.546875 -16.390625 L 4.546875 -6.75 C 4.546875 -5.882812 4.742188 -5.101562 5.140625 -4.40625 C 5.546875 -3.707031 6.082031 -3.164062 6.75 -2.78125 C 7.425781 -2.394531 8.144531 -2.203125 8.90625 -2.203125 C 9.71875 -2.203125 10.460938 -2.394531 11.140625 -2.78125 C 11.828125 -3.164062 12.375 -3.707031 12.78125 -4.40625 C 13.195312 -5.101562 13.40625 -5.882812 13.40625 -6.75 L 13.40625 -16.390625 C 13.40625 -16.742188 13.503906 -17.035156 13.703125 -17.265625 C 13.910156 -17.492188 14.1875 -17.609375 14.53125 -17.609375 Z M 14.53125 -17.609375 "/></g></g></g><g fill="#000000" fill-opacity="1"><g transform="translate(246.09189, 347.713593)"><g><path d="M 9.46875 -17.578125 C 11.039062 -17.578125 12.382812 -17.179688 13.5 -16.390625 C 14.625 -15.609375 15.472656 -14.550781 16.046875 -13.21875 C 16.617188 -11.882812 16.90625 -10.40625 16.90625 -8.78125 C 16.90625 -7.144531 16.617188 -5.660156 16.046875 -4.328125 C 15.472656 -2.992188 14.625 -1.9375 13.5 -1.15625 C 12.382812 -0.382812 11.039062 0 9.46875 0 L 3.296875 0 C 2.953125 0 2.660156 -0.113281 2.421875 -0.34375 C 2.191406 -0.582031 2.078125 -0.867188 2.078125 -1.203125 L 2.078125 -16.375 C 2.078125 -16.707031 2.191406 -16.988281 2.421875 -17.21875 C 2.660156 -17.457031 2.953125 -17.578125 3.296875 -17.578125 Z M 9.21875 -2.3125 C 10.925781 -2.3125 12.207031 -2.914062 13.0625 -4.125 C 13.914062 -5.34375 14.34375 -6.894531 14.34375 -8.78125 C 14.34375 -10.65625 13.910156 -12.203125 13.046875 -13.421875 C 12.179688 -14.648438 10.90625 -15.265625 9.21875 -15.265625 L 4.5625 -15.265625 L 4.5625 -2.3125 Z M 9.21875 -2.3125 "/></g></g></g><g fill="#000000" fill-opacity="1"><g transform="translate(268.543163, 347.713593)"><g><path d="M 14.15625 -16.453125 C 14.15625 -16.191406 14.082031 -15.9375 13.9375 -15.6875 L 8.53125 -8.078125 L 8.53125 -1.203125 C 8.53125 -0.867188 8.414062 -0.582031 8.1875 -0.34375 C 7.96875 -0.113281 7.695312 0 7.375 0 C 7.039062 0 6.753906 -0.113281 6.515625 -0.34375 C 6.285156 -0.582031 6.171875 -0.867188 6.171875 -1.203125 L 6.171875 -8.28125 L 0.796875 -15.546875 C 0.566406 -15.847656 0.453125 -16.148438 0.453125 -16.453125 C 0.453125 -16.785156 0.582031 -17.066406 0.84375 -17.296875 C 1.113281 -17.535156 1.410156 -17.65625 1.734375 -17.65625 C 2.117188 -17.65625 2.445312 -17.46875 2.71875 -17.09375 L 7.4375 -10.578125 L 11.984375 -17.078125 C 12.242188 -17.460938 12.578125 -17.65625 12.984375 -17.65625 C 13.296875 -17.65625 13.566406 -17.535156 13.796875 -17.296875 C 14.035156 -17.066406 14.15625 -16.785156 14.15625 -16.453125 Z M 14.15625 -16.453125 "/></g></g></g></svg>