<svg xmlns="http://www.w3.org/2000/svg" xmlns:xlink="http://www.w3.org/1999/xlink" width="500" zoomAndPan="magnify" viewBox="0 0 375 374.999991" height="500" preserveAspectRatio="xMidYMid meet" version="1.0"><path fill="#ffffff" d="M 315.25 375 L 59.75 375 C 26.804688 375 0 348.195312 0 315.25 L 0 59.75 C 0 26.804688 26.804688 0 59.75 0 L 315.25 0 C 348.195312 0 375 26.804688 375 59.75 L 375 315.25 C 375 348.195312 348.195312 375 315.25 375 Z M 59.75 14.707031 C 34.914062 14.707031 14.707031 34.914062 14.707031 59.75 L 14.707031 315.25 C 14.707031 340.085938 34.914062 360.292969 59.75 360.292969 L 315.25 360.292969 C 340.085938 360.292969 360.292969 340.085938 360.292969 315.25 L 360.292969 59.75 C 360.292969 34.914062 340.085938 14.707031 315.25 14.707031 Z M 59.75 14.707031 " fill-opacity="1" fill-rule="nonzero"/><path fill="#ffffff" d="M 113.96875 94.335938 C 113.96875 95.058594 113.933594 95.777344 113.863281 96.496094 C 113.792969 97.214844 113.6875 97.929688 113.546875 98.640625 C 113.40625 99.347656 113.230469 100.046875 113.019531 100.738281 C 112.8125 101.429688 112.566406 102.109375 112.292969 102.777344 C 112.015625 103.445312 111.707031 104.097656 111.367188 104.734375 C 111.023438 105.371094 110.65625 105.988281 110.253906 106.589844 C 109.851562 107.191406 109.421875 107.769531 108.964844 108.328125 C 108.503906 108.886719 108.019531 109.421875 107.507812 109.933594 C 107 110.445312 106.464844 110.929688 105.90625 111.386719 C 105.347656 111.84375 104.769531 112.273438 104.167969 112.675781 C 103.566406 113.078125 102.949219 113.449219 102.308594 113.789062 C 101.671875 114.128906 101.019531 114.4375 100.351562 114.714844 C 99.6875 114.992188 99.007812 115.234375 98.316406 115.445312 C 97.625 115.652344 96.921875 115.828125 96.214844 115.96875 C 95.507812 116.109375 94.792969 116.21875 94.074219 116.289062 C 93.355469 116.359375 92.632812 116.394531 91.910156 116.394531 C 91.1875 116.394531 90.46875 116.359375 89.75 116.289062 C 89.03125 116.21875 88.316406 116.109375 87.609375 115.96875 C 86.898438 115.828125 86.199219 115.652344 85.507812 115.445312 C 84.816406 115.234375 84.136719 114.992188 83.46875 114.714844 C 82.804688 114.4375 82.152344 114.128906 81.511719 113.789062 C 80.875 113.449219 80.257812 113.078125 79.65625 112.675781 C 79.054688 112.273438 78.476562 111.84375 77.917969 111.386719 C 77.359375 110.929688 76.824219 110.445312 76.3125 109.933594 C 75.804688 109.421875 75.320312 108.886719 74.859375 108.328125 C 74.402344 107.769531 73.972656 107.191406 73.570312 106.589844 C 73.167969 105.988281 72.796875 105.371094 72.457031 104.734375 C 72.117188 104.097656 71.808594 103.445312 71.53125 102.777344 C 71.253906 102.109375 71.011719 101.429688 70.804688 100.738281 C 70.59375 100.046875 70.417969 99.347656 70.277344 98.640625 C 70.136719 97.929688 70.03125 97.214844 69.960938 96.496094 C 69.886719 95.777344 69.851562 95.058594 69.851562 94.335938 C 69.851562 93.613281 69.886719 92.890625 69.960938 92.171875 C 70.03125 91.453125 70.136719 90.742188 70.277344 90.03125 C 70.417969 89.324219 70.59375 88.625 70.804688 87.933594 C 71.011719 87.242188 71.253906 86.5625 71.53125 85.894531 C 71.808594 85.226562 72.117188 84.574219 72.457031 83.9375 C 72.796875 83.300781 73.167969 82.679688 73.570312 82.078125 C 73.972656 81.480469 74.402344 80.898438 74.859375 80.339844 C 75.320312 79.78125 75.804688 79.25 76.3125 78.738281 C 76.824219 78.226562 77.359375 77.742188 77.917969 77.285156 C 78.476562 76.824219 79.054688 76.394531 79.65625 75.992188 C 80.257812 75.59375 80.875 75.222656 81.511719 74.882812 C 82.152344 74.539062 82.804688 74.230469 83.46875 73.957031 C 84.136719 73.679688 84.816406 73.4375 85.507812 73.226562 C 86.199219 73.015625 86.898438 72.839844 87.609375 72.699219 C 88.316406 72.558594 89.03125 72.453125 89.75 72.382812 C 90.46875 72.3125 91.1875 72.277344 91.910156 72.277344 C 92.632812 72.277344 93.355469 72.3125 94.074219 72.382812 C 94.792969 72.453125 95.507812 72.558594 96.214844 72.699219 C 96.921875 72.839844 97.625 73.015625 98.316406 73.226562 C 99.007812 73.4375 99.6875 73.679688 100.351562 73.957031 C 101.019531 74.230469 101.671875 74.539062 102.308594 74.882812 C 102.949219 75.222656 103.566406 75.59375 104.167969 75.992188 C 104.769531 76.394531 105.347656 76.824219 105.90625 77.285156 C 106.464844 77.742188 107 78.226562 107.507812 78.738281 C 108.019531 79.25 108.503906 79.78125 108.964844 80.339844 C 109.421875 80.898438 109.851562 81.480469 110.253906 82.078125 C 110.65625 82.679688 111.023438 83.300781 111.367188 83.9375 C 111.707031 84.574219 112.015625 85.226562 112.292969 85.894531 C 112.566406 86.5625 112.8125 87.242188 113.019531 87.933594 C 113.230469 88.625 113.40625 89.324219 113.546875 90.03125 C 113.6875 90.742188 113.792969 91.453125 113.863281 92.171875 C 113.933594 92.890625 113.96875 93.613281 113.96875 94.335938 Z M 113.96875 94.335938 " fill-opacity="1" fill-rule="nonzero"/><path fill="#ffffff" d="M 69.851562 161.054688 L 113.96875 161.054688 L 113.96875 304.804688 L 69.851562 304.804688 Z M 69.851562 161.054688 " fill-opacity="1" fill-rule="nonzero"/><path fill="#ffffff" d="M 290.441406 212.804688 L 290.441406 304.71875 L 244.851562 304.71875 L 244.851562 245.527344 C 244.851562 231.730469 233.65625 220.238281 219.484375 220.339844 C 205.195312 220.4375 194.117188 232.453125 194.117188 245.9375 L 194.117188 304.804688 L 150 304.804688 L 150 161.054688 L 194.117188 161.054688 L 194.117188 188.003906 C 194.117188 188.003906 227.242188 151.035156 266.59375 173.761719 C 280.730469 181.921875 289.902344 196.628906 290.441406 212.804688 Z M 290.441406 212.804688 " fill-opacity="1" fill-rule="nonzero"/></svg>