<svg xmlns="http://www.w3.org/2000/svg" xmlns:xlink="http://www.w3.org/1999/xlink" width="500" zoomAndPan="magnify" viewBox="0 0 375 374.999991" height="500" preserveAspectRatio="xMidYMid meet" version="1.0"><path fill="#ffffff" d="M 232.679688 32.648438 C 141.453125 2.589844 44.660156 47.554688 16.480469 133.078125 C 0.0117188 183.066406 10.628906 235.84375 40.511719 277.078125 L 32.875 302.007812 L 22.128906 331.472656 L 52.21875 322.628906 L 77.332031 314.539062 C 85.394531 320.605469 93.894531 325.96875 102.839844 330.636719 C 111.78125 335.304688 121.046875 339.207031 130.632812 342.351562 C 221.855469 372.410156 318.652344 327.445312 346.832031 241.925781 C 375.007812 156.402344 323.902344 62.707031 232.679688 32.648438 Z M 181.65625 322.234375 C 107.242188 322.234375 46.921875 261.914062 46.921875 187.5 C 46.921875 113.085938 107.242188 52.765625 181.65625 52.765625 C 256.070312 52.765625 316.390625 113.085938 316.390625 187.5 C 316.390625 261.914062 256.070312 322.234375 181.65625 322.234375 Z M 181.65625 322.234375 " fill-opacity="1" fill-rule="nonzero"/><path fill="#ffffff" d="M 188.203125 357.066406 C 178.214844 357.035156 168.289062 356.226562 158.429688 354.640625 C 148.566406 353.054688 138.886719 350.710938 129.394531 347.609375 C 119.898438 344.503906 110.703125 340.679688 101.808594 336.136719 C 92.914062 331.59375 84.425781 326.382812 76.347656 320.507812 L 53.734375 327.792969 L 13.421875 339.640625 L 27.769531 300.296875 L 34.589844 278.039062 C 27.59375 268.082031 21.691406 257.515625 16.886719 246.332031 C 11.769531 234.414062 8.078125 222.066406 5.8125 209.292969 C 3.542969 196.449219 2.84375 183.519531 3.714844 170.503906 C 4.019531 166.027344 4.515625 161.570312 5.195312 157.132812 C 5.875 152.699219 6.742188 148.296875 7.796875 143.9375 C 8.847656 139.574219 10.082031 135.261719 11.5 131.003906 C 12.914062 126.746094 14.507812 122.554688 16.277344 118.429688 C 18.046875 114.304688 19.984375 110.261719 22.097656 106.300781 C 24.207031 102.339844 26.480469 98.476562 28.914062 94.707031 C 31.351562 90.9375 33.941406 87.277344 36.6875 83.726562 C 39.433594 80.175781 42.320312 76.75 45.355469 73.441406 C 60.230469 57.21875 78.171875 44.164062 98.671875 34.640625 C 119.140625 25.128906 141.140625 19.621094 164.058594 18.261719 C 187.761719 16.855469 211.417969 19.976562 234.363281 27.539062 C 257.308594 35.097656 278.183594 46.652344 296.410156 61.871094 C 314.03125 76.585938 328.445312 94.09375 339.253906 113.910156 C 350.078125 133.753906 356.742188 154.917969 359.0625 176.804688 C 359.660156 182.417969 359.957031 188.050781 359.957031 193.695312 C 359.957031 199.339844 359.65625 204.972656 359.058594 210.585938 C 358.457031 216.199219 357.566406 221.765625 356.375 227.285156 C 355.1875 232.804688 353.707031 238.246094 351.941406 243.609375 C 350.175781 248.96875 348.128906 254.222656 345.804688 259.371094 C 343.480469 264.515625 340.890625 269.523438 338.035156 274.390625 C 335.175781 279.261719 332.070312 283.96875 328.714844 288.507812 C 325.359375 293.050781 321.773438 297.398438 317.957031 301.558594 C 303.082031 317.78125 285.140625 330.835938 264.640625 340.359375 C 244.171875 349.871094 222.171875 355.378906 199.253906 356.738281 C 195.570312 356.957031 191.886719 357.066406 188.203125 357.066406 Z M 78.34375 308.5625 L 80.574219 310.242188 C 84.421875 313.132812 88.378906 315.859375 92.445312 318.429688 C 96.515625 321 100.675781 323.402344 104.9375 325.640625 C 109.195312 327.875 113.539062 329.9375 117.964844 331.828125 C 122.390625 333.714844 126.882812 335.421875 131.445312 336.953125 C 136.007812 338.480469 140.625 339.820312 145.292969 340.980469 C 149.964844 342.136719 154.671875 343.105469 159.417969 343.886719 C 164.167969 344.667969 168.9375 345.253906 173.734375 345.652344 C 178.527344 346.050781 183.332031 346.253906 188.140625 346.269531 C 257.175781 346.269531 320.242188 305.425781 341.71875 240.238281 C 354.878906 200.304688 350.648438 157.269531 329.808594 119.0625 C 308.902344 80.742188 273.8125 51.867188 230.996094 37.757812 C 188.179688 23.652344 142.796875 26.011719 103.203125 44.398438 C 63.734375 62.734375 34.75 94.824219 21.59375 134.761719 C 6.183594 181.523438 14.667969 232.246094 44.871094 273.921875 L 46.445312 276.089844 L 37.929688 303.851562 L 30.835938 323.304688 L 50.632812 317.484375 Z M 181.65625 327.617188 C 178.800781 327.613281 175.949219 327.523438 173.101562 327.34375 C 170.253906 327.164062 167.414062 326.898438 164.582031 326.546875 C 161.75 326.195312 158.929688 325.757812 156.125 325.230469 C 153.320312 324.707031 150.53125 324.09375 147.765625 323.398438 C 144.996094 322.703125 142.253906 321.921875 139.53125 321.058594 C 136.8125 320.195312 134.121094 319.25 131.460938 318.21875 C 128.796875 317.191406 126.167969 316.082031 123.574219 314.890625 C 120.980469 313.699219 118.425781 312.429688 115.910156 311.085938 C 113.394531 309.738281 110.921875 308.316406 108.492188 306.816406 C 106.0625 305.320312 103.679688 303.746094 101.347656 302.101562 C 99.015625 300.457031 96.734375 298.746094 94.507812 296.960938 C 92.28125 295.175781 90.109375 293.324219 87.996094 291.410156 C 85.878906 289.492188 83.828125 287.511719 81.832031 285.46875 C 79.839844 283.425781 77.914062 281.324219 76.046875 279.160156 C 74.183594 277 72.386719 274.785156 70.660156 272.511719 C 68.929688 270.242188 67.273438 267.917969 65.6875 265.546875 C 64.101562 263.175781 62.589844 260.753906 61.152344 258.289062 C 59.714844 255.824219 58.355469 253.316406 57.070312 250.769531 C 55.785156 248.21875 54.582031 245.632812 53.457031 243.011719 C 52.332031 240.386719 51.285156 237.730469 50.324219 235.046875 C 49.359375 232.359375 48.480469 229.644531 47.683594 226.90625 C 46.886719 224.164062 46.175781 221.402344 45.550781 218.617188 C 44.921875 215.832031 44.378906 213.03125 43.925781 210.214844 C 43.46875 207.398438 43.101562 204.566406 42.820312 201.726562 C 42.535156 198.886719 42.34375 196.042969 42.234375 193.191406 C 42.125 190.335938 42.105469 187.484375 42.171875 184.632812 C 42.242188 181.777344 42.394531 178.929688 42.636719 176.085938 C 42.878906 173.242188 43.207031 170.410156 43.625 167.585938 C 44.039062 164.761719 44.539062 161.953125 45.128906 159.160156 C 45.714844 156.367188 46.386719 153.59375 47.144531 150.84375 C 47.902344 148.089844 48.742188 145.363281 49.667969 142.664062 C 50.59375 139.964844 51.601562 137.296875 52.6875 134.65625 C 53.777344 132.019531 54.945312 129.414062 56.191406 126.847656 C 57.441406 124.28125 58.765625 121.753906 60.167969 119.269531 C 61.570312 116.785156 63.046875 114.34375 64.597656 111.949219 C 66.152344 109.554688 67.777344 107.207031 69.472656 104.914062 C 71.167969 102.617188 72.933594 100.375 74.765625 98.1875 C 76.597656 96 78.496094 93.871094 80.460938 91.800781 C 82.425781 89.730469 84.449219 87.71875 86.535156 85.773438 C 88.625 83.828125 90.769531 81.945312 92.972656 80.128906 C 95.171875 78.316406 97.429688 76.566406 99.738281 74.890625 C 102.046875 73.214844 104.40625 71.609375 106.8125 70.074219 C 109.222656 68.542969 111.671875 67.085938 114.171875 65.703125 C 116.667969 64.320312 119.203125 63.015625 121.78125 61.789062 C 124.359375 60.5625 126.96875 59.417969 129.617188 58.347656 C 132.265625 57.28125 134.941406 56.296875 137.648438 55.394531 C 140.355469 54.492188 143.089844 53.671875 145.847656 52.9375 C 148.605469 52.203125 151.382812 51.554688 154.179688 50.988281 C 156.976562 50.421875 159.789062 49.945312 162.617188 49.550781 C 165.445312 49.160156 168.28125 48.855469 171.125 48.636719 C 173.972656 48.417969 176.820312 48.285156 179.675781 48.242188 C 182.53125 48.199219 185.382812 48.242188 188.234375 48.371094 C 191.085938 48.503906 193.929688 48.71875 196.765625 49.027344 C 199.605469 49.332031 202.429688 49.722656 205.242188 50.199219 C 208.058594 50.679688 210.855469 51.242188 213.632812 51.894531 C 216.410156 52.542969 219.167969 53.277344 221.902344 54.09375 C 224.636719 54.914062 227.34375 55.816406 230.023438 56.800781 C 232.699219 57.785156 235.347656 58.851562 237.960938 59.996094 C 240.574219 61.144531 243.152344 62.371094 245.6875 63.675781 C 248.226562 64.980469 250.722656 66.359375 253.175781 67.816406 C 255.632812 69.277344 258.039062 70.808594 260.398438 72.414062 C 262.757812 74.015625 265.066406 75.691406 267.324219 77.441406 C 269.582031 79.1875 271.78125 81 273.929688 82.882812 C 276.074219 84.765625 278.160156 86.710938 280.1875 88.71875 C 282.214844 90.730469 284.175781 92.796875 286.078125 94.929688 C 287.976562 97.058594 289.808594 99.242188 291.574219 101.484375 C 293.34375 103.726562 295.039062 106.023438 296.664062 108.367188 C 298.289062 110.714844 299.839844 113.109375 301.320312 115.550781 C 302.796875 117.992188 304.199219 120.476562 305.527344 123.003906 C 306.851562 125.527344 308.101562 128.09375 309.269531 130.699219 C 310.4375 133.300781 311.527344 135.9375 312.535156 138.609375 C 313.542969 141.28125 314.464844 143.976562 315.308594 146.707031 C 316.152344 149.433594 316.910156 152.183594 317.582031 154.957031 C 318.253906 157.730469 318.84375 160.519531 319.34375 163.332031 C 319.847656 166.140625 320.265625 168.960938 320.59375 171.796875 C 320.921875 174.632812 321.164062 177.476562 321.320312 180.324219 C 321.476562 183.175781 321.542969 186.027344 321.523438 188.878906 C 321.503906 191.734375 321.398438 194.585938 321.203125 197.433594 C 321.007812 200.28125 320.726562 203.117188 320.359375 205.949219 C 319.992188 208.78125 319.535156 211.597656 318.996094 214.398438 C 318.453125 217.199219 317.828125 219.984375 317.117188 222.746094 C 316.40625 225.511719 315.609375 228.25 314.730469 230.964844 C 313.851562 233.679688 312.886719 236.367188 311.84375 239.023438 C 310.800781 241.679688 309.675781 244.300781 308.472656 246.890625 C 307.265625 249.476562 305.984375 252.023438 304.621094 254.53125 C 303.261719 257.042969 301.824219 259.507812 300.3125 261.925781 C 298.800781 264.347656 297.214844 266.71875 295.558594 269.042969 C 293.902344 271.367188 292.175781 273.636719 290.378906 275.855469 C 288.582031 278.074219 286.71875 280.234375 284.789062 282.335938 C 282.859375 284.441406 280.867188 286.484375 278.816406 288.464844 C 276.761719 290.445312 274.648438 292.363281 272.476562 294.214844 C 270.304688 296.066406 268.078125 297.851562 265.796875 299.566406 C 263.515625 301.28125 261.183594 302.925781 258.804688 304.496094 C 256.421875 306.070312 253.992188 307.570312 251.519531 308.992188 C 249.046875 310.417969 246.53125 311.761719 243.976562 313.03125 C 241.417969 314.300781 238.828125 315.492188 236.199219 316.601562 C 227.570312 320.253906 218.664062 323.007812 209.484375 324.863281 C 200.300781 326.714844 191.023438 327.632812 181.65625 327.617188 Z M 181.65625 58.144531 C 110.328125 58.144531 52.300781 116.171875 52.300781 187.5 C 52.300781 258.828125 110.328125 316.855469 181.65625 316.855469 C 252.984375 316.855469 311.011719 258.828125 311.011719 187.5 C 311.011719 116.171875 252.984375 58.144531 181.65625 58.144531 Z M 181.65625 58.144531 " fill-opacity="1" fill-rule="nonzero"/><path fill="#ffffff" d="M 123.449219 93.832031 C 124.3125 93.292969 125.195312 92.792969 126.101562 92.328125 C 127.003906 91.867188 127.925781 91.445312 128.867188 91.0625 C 129.808594 90.679688 130.765625 90.339844 131.738281 90.039062 C 132.707031 89.742188 133.6875 89.484375 134.683594 89.269531 C 135.675781 89.054688 136.675781 88.882812 137.683594 88.753906 C 138.691406 88.625 139.703125 88.542969 140.71875 88.5 C 141.734375 88.460938 142.75 88.464844 143.761719 88.511719 C 144.777344 88.558594 145.789062 88.648438 146.796875 88.785156 C 147.800781 88.921875 148.800781 89.097656 149.792969 89.320312 C 150.785156 89.539062 151.765625 89.804688 152.734375 90.109375 C 153.703125 90.417969 154.65625 90.761719 155.59375 91.152344 C 156.535156 91.539062 157.453125 91.96875 158.355469 92.4375 C 159.257812 92.90625 160.136719 93.410156 160.996094 93.957031 C 161.851562 94.5 162.683594 95.082031 163.492188 95.699219 C 164.300781 96.3125 165.078125 96.964844 165.832031 97.648438 C 166.582031 98.332031 167.300781 99.046875 167.992188 99.792969 L 164.804688 150.605469 C 163.535156 151.667969 162.195312 152.640625 160.792969 153.519531 C 156.082031 156.476562 150.960938 158.210938 145.425781 158.730469 C 146.03125 162.4375 146.820312 166.101562 147.785156 169.730469 C 148.753906 173.359375 149.898438 176.929688 151.21875 180.445312 C 152.542969 183.960938 154.03125 187.398438 155.691406 190.769531 C 157.355469 194.136719 159.175781 197.414062 161.160156 200.601562 C 163.144531 203.785156 165.285156 206.867188 167.574219 209.84375 C 169.863281 212.820312 172.292969 215.675781 174.863281 218.414062 C 177.433594 221.148438 180.136719 223.75 182.964844 226.222656 C 185.792969 228.691406 188.734375 231.015625 191.792969 233.191406 C 194.691406 228.363281 198.527344 224.460938 203.304688 221.480469 C 204.472656 220.75 205.679688 220.089844 206.925781 219.496094 L 255.066406 239.292969 C 255.601562 240.769531 256.039062 242.277344 256.375 243.8125 C 256.710938 245.351562 256.941406 246.902344 257.066406 248.46875 C 257.195312 250.035156 257.21875 251.605469 257.132812 253.175781 C 257.050781 254.746094 256.863281 256.304688 256.570312 257.847656 C 256.28125 259.394531 255.886719 260.914062 255.390625 262.40625 C 254.898438 263.898438 254.304688 265.351562 253.613281 266.761719 C 252.925781 268.175781 252.144531 269.539062 251.273438 270.84375 C 250.398438 272.152344 249.445312 273.398438 248.40625 274.578125 C 247.367188 275.757812 246.253906 276.863281 245.066406 277.898438 C 243.878906 278.929688 242.628906 279.875 241.316406 280.738281 C 240.003906 281.601562 238.636719 282.375 237.21875 283.054688 C 235.800781 283.738281 234.34375 284.320312 232.851562 284.804688 C 231.355469 285.292969 229.832031 285.675781 228.285156 285.957031 C 226.738281 286.238281 225.179688 286.417969 223.609375 286.488281 C 222.039062 286.5625 220.46875 286.53125 218.902344 286.394531 C 217.335938 286.257812 215.789062 286.015625 214.253906 285.671875 C 212.234375 285.070312 210.230469 284.425781 208.238281 283.738281 C 206.238281 283.046875 204.25 282.316406 202.28125 281.542969 C 200.3125 280.769531 198.359375 279.953125 196.421875 279.097656 C 194.484375 278.242188 192.566406 277.347656 190.667969 276.410156 C 188.769531 275.476562 186.890625 274.5 185.035156 273.488281 C 183.175781 272.472656 181.339844 271.417969 179.527344 270.328125 C 177.714844 269.234375 175.921875 268.105469 174.15625 266.941406 C 172.390625 265.773438 170.648438 264.570312 168.933594 263.332031 C 167.21875 262.09375 165.527344 260.816406 163.867188 259.507812 C 162.203125 258.195312 160.570312 256.851562 158.964844 255.472656 C 157.355469 254.09375 155.78125 252.683594 154.234375 251.238281 C 152.6875 249.792969 151.171875 248.316406 149.6875 246.808594 C 148.199219 245.300781 146.746094 243.761719 145.328125 242.191406 C 143.90625 240.621094 142.519531 239.023438 141.167969 237.394531 C 139.8125 235.769531 138.492188 234.113281 137.210938 232.429688 C 135.925781 230.75 134.675781 229.039062 133.464844 227.304688 C 132.25 225.570312 131.074219 223.808594 129.9375 222.023438 C 128.796875 220.242188 127.699219 218.433594 126.632812 216.601562 C 125.570312 214.773438 124.546875 212.921875 123.5625 211.046875 C 122.578125 209.171875 121.628906 207.28125 120.722656 205.367188 C 119.820312 203.453125 118.953125 201.523438 118.128906 199.574219 C 117.300781 197.625 116.519531 195.660156 115.777344 193.675781 C 115.03125 191.695312 114.332031 189.699219 113.671875 187.6875 C 113.015625 185.675781 112.398438 183.648438 111.824219 181.613281 C 111.25 179.574219 110.71875 177.527344 110.230469 175.46875 C 109.742188 173.40625 109.296875 171.339844 108.894531 169.261719 C 108.492188 167.179688 108.136719 165.09375 107.820312 163.003906 C 107.507812 160.910156 107.238281 158.808594 107.011719 156.707031 C 106.785156 154.601562 106.601562 152.492188 106.464844 150.378906 C 106.328125 148.269531 106.234375 146.152344 106.183594 144.039062 C 106.136719 141.921875 106.128906 139.804688 106.167969 137.6875 C 106.207031 135.570312 106.292969 133.457031 106.421875 131.34375 C 106.550781 129.230469 106.722656 127.121094 106.9375 125.015625 C 106.9375 125.011719 106.9375 125.007812 106.9375 125.003906 C 107.378906 120.753906 107.996094 116.53125 108.796875 112.332031 C 109.441406 110.425781 110.242188 108.589844 111.203125 106.824219 C 112.164062 105.058594 113.269531 103.386719 114.519531 101.808594 C 115.765625 100.234375 117.140625 98.777344 118.640625 97.4375 C 120.140625 96.097656 121.742188 94.894531 123.449219 93.832031 Z M 123.449219 93.832031 " fill-opacity="1" fill-rule="nonzero"/><path fill="#ffffff" d="M 222.046875 291.921875 C 219.019531 291.921875 216.027344 291.585938 213.070312 290.921875 L 212.894531 290.878906 L 212.71875 290.828125 C 210.65625 290.214844 208.558594 289.539062 206.484375 288.824219 C 204.429688 288.121094 202.390625 287.371094 200.367188 286.582031 C 198.347656 285.789062 196.339844 284.957031 194.351562 284.082031 C 192.363281 283.207031 190.394531 282.292969 188.445312 281.335938 C 186.496094 280.378906 184.566406 279.382812 182.65625 278.347656 C 180.746094 277.308594 178.863281 276.234375 176.996094 275.117188 C 175.132812 274.003906 173.292969 272.851562 171.476562 271.660156 C 169.660156 270.46875 167.871094 269.238281 166.105469 267.972656 C 164.339844 266.707031 162.605469 265.40625 160.894531 264.066406 C 159.183594 262.726562 157.5 261.355469 155.847656 259.945312 C 154.191406 258.539062 152.570312 257.097656 150.976562 255.621094 C 149.382812 254.144531 147.820312 252.636719 146.289062 251.097656 C 144.757812 249.554688 143.257812 247.984375 141.792969 246.378906 C 140.328125 244.777344 138.894531 243.144531 137.5 241.484375 C 136.101562 239.820312 134.738281 238.128906 133.410156 236.410156 C 132.082031 234.691406 130.792969 232.945312 129.539062 231.171875 C 128.285156 229.398438 127.066406 227.601562 125.886719 225.777344 C 124.707031 223.953125 123.5625 222.105469 122.460938 220.234375 C 121.359375 218.363281 120.292969 216.472656 119.269531 214.554688 C 118.246094 212.640625 117.261719 210.703125 116.316406 208.75 C 115.375 206.792969 114.46875 204.816406 113.609375 202.824219 C 112.746094 200.832031 111.925781 198.820312 111.148438 196.792969 C 110.371094 194.765625 109.636719 192.722656 108.941406 190.664062 C 108.25 188.605469 107.597656 186.53125 106.992188 184.445312 C 106.382812 182.359375 105.820312 180.265625 105.300781 178.15625 C 104.78125 176.046875 104.304688 173.925781 103.875 171.800781 C 103.441406 169.671875 103.054688 167.535156 102.710938 165.390625 C 102.367188 163.242188 102.070312 161.09375 101.816406 158.9375 C 101.5625 156.777344 101.355469 154.617188 101.191406 152.453125 C 101.027344 150.285156 100.910156 148.117188 100.835938 145.945312 C 100.761719 143.777344 100.734375 141.605469 100.75 139.433594 C 100.769531 137.261719 100.832031 135.089844 100.9375 132.921875 C 101.046875 130.75 101.199219 128.585938 101.394531 126.421875 L 101.207031 126.144531 L 101.613281 124.179688 C 102.066406 119.890625 102.703125 115.566406 103.507812 111.324219 L 103.578125 110.957031 L 103.699219 110.601562 C 104.140625 109.296875 104.648438 108.019531 105.222656 106.769531 C 105.796875 105.515625 106.429688 104.296875 107.128906 103.109375 C 107.824219 101.921875 108.582031 100.773438 109.394531 99.664062 C 110.207031 98.554688 111.078125 97.488281 112 96.464844 C 112.921875 95.441406 113.894531 94.46875 114.917969 93.546875 C 115.9375 92.625 117.003906 91.757812 118.113281 90.941406 C 119.222656 90.128906 120.375 89.371094 121.558594 88.675781 C 122.746094 87.976562 123.96875 87.339844 125.21875 86.769531 C 126.46875 86.195312 127.75 85.6875 129.050781 85.242188 C 130.355469 84.800781 131.679688 84.425781 133.019531 84.117188 C 134.363281 83.808594 135.714844 83.566406 137.082031 83.398438 C 138.449219 83.226562 139.820312 83.125 141.195312 83.09375 C 142.574219 83.0625 143.945312 83.101562 145.320312 83.210938 C 146.691406 83.320312 148.054688 83.5 149.410156 83.746094 C 150.765625 83.996094 152.101562 84.3125 153.425781 84.695312 C 154.746094 85.078125 156.046875 85.527344 157.320312 86.046875 C 162.960938 88.304688 167.835938 91.671875 171.949219 96.144531 L 173.503906 97.835938 L 170.03125 153.246094 L 168.257812 154.730469 C 166.796875 155.953125 165.257812 157.070312 163.644531 158.082031 C 159.941406 160.410156 155.96875 162.089844 151.71875 163.121094 C 153.039062 169.25 154.871094 175.222656 157.222656 181.035156 C 159.570312 186.84375 162.402344 192.410156 165.714844 197.734375 C 169.027344 203.054688 172.773438 208.054688 176.949219 212.730469 C 181.125 217.402344 185.671875 221.6875 190.589844 225.574219 C 193.402344 222.148438 196.6875 219.261719 200.453125 216.917969 C 201.796875 216.078125 203.179688 215.320312 204.609375 214.640625 L 206.765625 213.613281 L 259.308594 235.21875 L 260.121094 237.449219 C 262.15625 243.003906 262.925781 248.730469 262.429688 254.628906 C 262.304688 256.195312 262.085938 257.753906 261.777344 259.300781 C 261.46875 260.84375 261.070312 262.363281 260.582031 263.863281 C 260.097656 265.363281 259.523438 266.828125 258.867188 268.257812 C 258.210938 269.691406 257.472656 271.078125 256.652344 272.425781 C 255.835938 273.769531 254.941406 275.0625 253.972656 276.304688 C 253 277.546875 251.964844 278.726562 250.855469 279.847656 C 249.75 280.96875 248.578125 282.019531 247.351562 283.003906 C 246.121094 283.988281 244.835938 284.898438 243.5 285.730469 C 240.289062 287.75 236.859375 289.289062 233.210938 290.339844 C 229.5625 291.394531 225.84375 291.921875 222.046875 291.921875 Z M 215.605469 280.460938 C 216.230469 280.597656 216.859375 280.710938 217.492188 280.808594 C 218.125 280.902344 218.757812 280.980469 219.394531 281.035156 C 220.035156 281.089844 220.671875 281.125 221.3125 281.136719 C 221.949219 281.152344 222.589844 281.144531 223.226562 281.117188 C 223.867188 281.09375 224.503906 281.042969 225.140625 280.976562 C 225.777344 280.910156 226.410156 280.820312 227.039062 280.710938 C 227.667969 280.601562 228.296875 280.472656 228.917969 280.324219 C 229.539062 280.175781 230.15625 280.007812 230.765625 279.820312 C 231.378906 279.628906 231.980469 279.421875 232.578125 279.195312 C 233.175781 278.96875 233.765625 278.722656 234.347656 278.457031 C 234.929688 278.191406 235.503906 277.90625 236.066406 277.605469 C 236.628906 277.304688 237.183594 276.984375 237.726562 276.644531 C 238.269531 276.308594 238.800781 275.953125 239.320312 275.582031 C 239.839844 275.210938 240.347656 274.820312 240.84375 274.417969 C 241.339844 274.011719 241.820312 273.59375 242.289062 273.15625 C 242.757812 272.722656 243.210938 272.269531 243.648438 271.804688 C 244.089844 271.339844 244.511719 270.863281 244.921875 270.371094 C 245.332031 269.878906 245.722656 269.375 246.097656 268.859375 C 246.476562 268.339844 246.832031 267.8125 247.175781 267.273438 C 247.519531 266.730469 247.84375 266.179688 248.148438 265.621094 C 248.457031 265.058594 248.742188 264.488281 249.015625 263.910156 C 249.285156 263.328125 249.535156 262.742188 249.765625 262.144531 C 250 261.550781 250.210938 260.945312 250.40625 260.335938 C 250.597656 259.726562 250.773438 259.113281 250.925781 258.492188 C 251.082031 257.871094 251.214844 257.246094 251.328125 256.617188 C 251.441406 255.988281 251.535156 255.355469 251.609375 254.722656 C 251.683594 254.085938 251.734375 253.449219 251.765625 252.808594 C 251.796875 252.171875 251.808594 251.53125 251.800781 250.894531 C 251.792969 250.253906 251.761719 249.617188 251.714844 248.976562 C 251.664062 248.339844 251.59375 247.707031 251.5 247.074219 C 251.410156 246.441406 251.300781 245.808594 251.167969 245.183594 C 251.039062 244.558594 250.886719 243.9375 250.714844 243.320312 L 207.191406 225.425781 C 206.84375 225.625 206.5 225.828125 206.160156 226.042969 C 202.105469 228.558594 198.855469 231.863281 196.40625 235.960938 L 193.417969 240.945312 L 188.679688 237.582031 C 185.476562 235.296875 182.394531 232.863281 179.429688 230.277344 C 176.46875 227.691406 173.640625 224.964844 170.945312 222.101562 C 168.253906 219.234375 165.707031 216.246094 163.308594 213.128906 C 160.910156 210.011719 158.671875 206.78125 156.59375 203.445312 C 154.515625 200.105469 152.605469 196.671875 150.867188 193.144531 C 149.125 189.617188 147.566406 186.015625 146.183594 182.332031 C 144.796875 178.652344 143.601562 174.910156 142.585938 171.113281 C 141.574219 167.3125 140.75 163.472656 140.113281 159.589844 L 139.195312 153.910156 L 144.925781 153.375 C 149.613281 152.941406 153.953125 151.46875 157.9375 148.957031 C 158.496094 148.609375 159.046875 148.238281 159.585938 147.847656 L 162.472656 101.863281 C 159.78125 99.34375 156.722656 97.398438 153.300781 96.027344 C 151.113281 95.148438 148.859375 94.535156 146.53125 94.191406 C 144.199219 93.84375 141.863281 93.773438 139.519531 93.980469 C 137.171875 94.1875 134.882812 94.660156 132.652344 95.40625 C 130.417969 96.152344 128.300781 97.148438 126.304688 98.394531 C 123.449219 100.179688 120.96875 102.390625 118.859375 105.015625 C 116.753906 107.644531 115.136719 110.542969 114.007812 113.71875 C 113.328125 117.339844 112.78125 121.023438 112.382812 124.6875 L 112.289062 125.570312 C 108.90625 158.179688 116.335938 190.148438 133.765625 218.015625 C 135.964844 221.523438 138.308594 224.929688 140.792969 228.238281 C 143.28125 231.550781 145.90625 234.746094 148.664062 237.832031 C 151.421875 240.921875 154.304688 243.886719 157.316406 246.726562 C 160.324219 249.570312 163.449219 252.277344 166.6875 254.855469 C 169.929688 257.433594 173.269531 259.867188 176.71875 262.164062 C 180.164062 264.457031 183.699219 266.597656 187.328125 268.59375 C 190.957031 270.585938 194.660156 272.421875 198.445312 274.101562 C 202.230469 275.78125 206.078125 277.296875 209.988281 278.652344 C 211.863281 279.296875 213.75 279.902344 215.605469 280.460938 Z M 215.605469 280.460938 " fill-opacity="1" fill-rule="nonzero"/></svg>